<svg width="55" height="42" viewBox="0 0 55 42" fill="none" xmlns="http://www.w3.org/2000/svg">
<g id="undraw_hacker_mind_-6-y85 1" clip-path="url(#clip0_2_2)">
<path id="dash" d="M2.00005 41.5526H51.2415V41.7039H2.00005V41.5526Z" fill="#64FFDA"/>
<g id="leg">
<path id="Vector" d="M45.7897 23.5233V26.6033L45.3732 28.4987C45.3732 28.4987 45.4327 29.6833 45.3732 30.0387C45.3137 30.3941 45.4327 30.9864 45.7897 30.9864C46.1467 30.9864 46.3252 31.8749 46.3252 31.8749C46.3252 31.8749 46.4442 32.2303 46.7417 32.2895C47.0392 32.3487 47.0392 32.2895 47.0392 32.2895L47.2772 32.8818L52.2156 36.1395L51.2636 38.5088C51.2636 38.5088 49.7761 37.9757 49.6571 37.798C49.5381 37.6203 48.5267 38.0349 48.5267 37.6203C48.5267 37.2057 48.3482 36.1395 47.9912 36.0803C47.6342 36.0211 44.6592 34.6587 44.6592 34.6587C44.6592 34.6587 43.1123 32.941 42.9933 32.2895C42.8743 31.638 42.3388 29.8018 42.3388 29.8018L40.8513 32.2895V37.2649L41.0893 39.9303L38.4714 39.5749C38.4714 39.5749 38.7094 37.9164 38.4714 37.6795C38.2334 37.4426 37.8764 34.5995 38.1144 34.2441C38.3524 33.8887 37.9954 32.2895 38.1144 32.0526C38.2334 31.8157 38.1739 30.098 38.4714 29.6241C38.7689 29.1503 40.5538 24.2933 40.5538 24.2933L45.7897 23.5233Z" fill="#2F2E41"/>
<path id="Vector_2" d="M40.7324 39.8119C40.7324 39.8119 41.6248 41.2926 41.0298 41.4703C40.4349 41.648 39.3044 41.4703 39.1854 41.4703C39.0664 41.4703 36.9244 41.5296 36.9244 41.5296C36.9244 41.5296 35.4965 41.2334 35.4965 40.8188C35.4965 40.4042 36.389 40.4042 36.6864 40.345C36.9839 40.2857 38.8284 39.575 38.8284 39.575L40.7324 39.8119Z" fill="#2F2E41"/>
<path id="Vector_3" d="M51.9424 36.2063C51.9424 36.2063 53.662 35.9796 53.5893 36.5937C53.5166 37.2079 52.9035 38.1699 52.8562 38.2786C52.8242 38.3522 52.4484 39.2843 52.2091 39.8782C52.0362 40.3136 51.7764 40.7096 51.4454 41.0422C51.2115 41.2749 50.9566 41.4615 50.7894 41.3894C50.4072 41.2246 50.7619 40.4094 50.8256 40.1141C50.8892 39.8188 50.9672 37.8514 50.9672 37.8514L51.9424 36.2063Z" fill="#2F2E41"/>
</g>
<g id="body">
<path id="Vector_4" d="M39.9143 12.5845L38.0103 8.20142C38.0103 8.20142 38.1888 7.7868 38.6053 7.84603C38.6053 7.84603 39.1706 6.39487 40.2416 6.39487C40.2416 6.39487 41.848 5.50641 42.324 6.39487C42.324 6.39487 43.3355 7.28334 43.276 8.11257C43.2165 8.94181 43.157 9.53412 43.157 9.53412C43.157 9.53412 44.109 9.65258 43.9305 10.1264C43.752 10.6003 43.6925 10.6003 43.9305 10.778L44.1685 10.9557C44.1685 10.9557 49.1069 15.398 46.3699 21.9134L46.1319 22.9203V23.868C46.1319 23.868 40.1226 23.9272 40.1226 23.868C40.1226 23.8088 40.2416 23.4534 40.0036 23.2165C39.7656 22.9796 39.7656 22.6242 39.7656 22.6242C39.7656 22.6242 40.0036 21.4396 39.8846 21.0842C39.7656 20.7288 39.7061 19.1888 39.9441 18.8334C40.1821 18.478 40.0631 15.6349 40.0631 15.6349L39.5276 14.628L39.7061 14.0357L39.8846 13.4434L39.9143 12.5845Z" fill="#B0BBDA" fill-opacity="0.79"/>
<path id="Vector_5" opacity="0.1" d="M40.4201 24.4603C40.4201 24.4603 41.1341 22.5057 41.0746 22.1503C41.0151 21.7949 41.1936 21.0841 41.1936 21.0841L41.4316 16.2864C41.4316 16.2864 40.4201 12.0218 42.6811 11.311C42.6811 11.311 43.2532 11.5595 43.7219 12.3592C44.1855 12.5648 44.7479 13.085 44.8825 14.391C45.1205 16.7011 44.0495 22.6241 43.514 23.6311C42.9786 24.638 42.6216 25.3488 42.6216 25.3488L42.0619 25.1011C42.0388 25.1468 42.0266 25.1711 42.0266 25.1711L40.4201 24.4603Z" fill="black"/>
<path id="Vector_6" d="M40.0927 12.0514C39.9942 12.0514 39.9142 11.9719 39.9142 11.8737C39.9142 11.7756 39.9942 11.696 40.0927 11.696C40.1913 11.696 40.2712 11.7756 40.2712 11.8737C40.2712 11.9719 40.1913 12.0514 40.0927 12.0514Z" fill="#F2F2F2"/>
<path id="Vector_7" d="M40.0333 11.8738H40.1523V14.6576H40.0333V11.8738Z" fill="#3F3D56"/>
<path id="Vector_8" d="M42.9191 11.311C42.9191 11.311 44.2876 11.9033 44.5256 14.2134C44.7636 16.5234 43.6926 22.4465 43.1571 23.4534C42.6216 24.4603 42.2646 25.1711 42.2646 25.1711L40.6582 24.4603C40.6582 24.4603 41.3721 22.5057 41.3126 22.1503C41.2531 21.7949 41.4316 21.0841 41.4316 21.0841L41.6696 16.2864C41.6696 16.2864 40.6582 12.0218 42.9191 11.311Z" fill="#B0BBDA" fill-opacity="0.79"/>
</g>
<path id="dot" d="M12.877 21.8446H14.9234V18.9491H12.877L12.877 21.8446ZM23.1501 18.9491H21.1037V21.8446H23.1501V18.9491ZM16.9903 21.8446H19.0368V18.9491H16.9903V21.8446Z" fill="#64FFDA" fill-opacity="0.69"/>
<g id="arrow">
<path id="Vector_9" d="M27.2532 28.4391L32.2874 21.3379L27.2532 14.2366L28.788 12.0723L35.3571 21.3379L28.788 30.6034L27.2532 28.4391Z" fill="#B0BBDA" fill-opacity="0.85"/>
<path id="Vector_10" d="M10.1039 28.3667L5.06454 21.2655L10.0988 14.1644L8.56396 12L2 21.2655L8.56908 30.5311L10.1039 28.3667Z" fill="#B0BBDA" fill-opacity="0.85"/>
</g>
<g id="name">
<path id="A" d="M19.4316 26.6074L14.8086 39H14.29L19.0801 26.2031H19.5371L19.4316 26.6074ZM23.9316 39L19.3086 26.6074L19.2119 26.2031H19.6602L24.4502 39H23.9316ZM22.5781 34.7021V35.1768H16.1709V34.7021H22.5781Z" fill="#64FFDA" fill-opacity="0.79"/>
<path id="DEDAYO" d="M25.8247 38H25.3794L25.3823 37.77H25.8247C25.9771 37.77 26.104 37.7383 26.2056 37.6748C26.3071 37.6104 26.3833 37.5205 26.4341 37.4053C26.4858 37.2891 26.5117 37.1533 26.5117 36.998V36.8677C26.5117 36.7456 26.4971 36.6372 26.4678 36.5425C26.4385 36.4468 26.3955 36.3662 26.3389 36.3008C26.2822 36.2344 26.2129 36.1841 26.1309 36.1499C26.0498 36.1157 25.9565 36.0986 25.8511 36.0986H25.3706V35.8672H25.8511C25.9907 35.8672 26.1182 35.8906 26.2334 35.9375C26.3486 35.9834 26.4478 36.0503 26.5308 36.1382C26.6147 36.2251 26.6792 36.3306 26.7241 36.4546C26.769 36.5776 26.7915 36.7163 26.7915 36.8706V36.998C26.7915 37.1523 26.769 37.2915 26.7241 37.4155C26.6792 37.5386 26.6143 37.6436 26.5293 37.7305C26.4453 37.8174 26.3438 37.8843 26.2246 37.9312C26.1064 37.9771 25.9731 38 25.8247 38ZM25.5303 35.8672V38H25.2476V35.8672H25.5303ZM28.5713 37.77V38H27.4419V37.77H28.5713ZM27.499 35.8672V38H27.2163V35.8672H27.499ZM28.4219 36.7842V37.0142H27.4419V36.7842H28.4219ZM28.5566 35.8672V36.0986H27.4419V35.8672H28.5566ZM29.4985 38H29.0532L29.0562 37.77H29.4985C29.6509 37.77 29.7778 37.7383 29.8794 37.6748C29.981 37.6104 30.0571 37.5205 30.1079 37.4053C30.1597 37.2891 30.1855 37.1533 30.1855 36.998V36.8677C30.1855 36.7456 30.1709 36.6372 30.1416 36.5425C30.1123 36.4468 30.0693 36.3662 30.0127 36.3008C29.9561 36.2344 29.8867 36.1841 29.8047 36.1499C29.7236 36.1157 29.6304 36.0986 29.5249 36.0986H29.0444V35.8672H29.5249C29.6646 35.8672 29.792 35.8906 29.9072 35.9375C30.0225 35.9834 30.1216 36.0503 30.2046 36.1382C30.2886 36.2251 30.353 36.3306 30.3979 36.4546C30.4429 36.5776 30.4653 36.7163 30.4653 36.8706V36.998C30.4653 37.1523 30.4429 37.2915 30.3979 37.4155C30.353 37.5386 30.2881 37.6436 30.2031 37.7305C30.1191 37.8174 30.0176 37.8843 29.8984 37.9312C29.7803 37.9771 29.647 38 29.4985 38ZM29.2041 35.8672V38H28.9214V35.8672H29.2041ZM31.6475 36.0562L30.9414 38H30.6528L31.4658 35.8672H31.6519L31.6475 36.0562ZM32.2393 38L31.5317 36.0562L31.5273 35.8672H31.7134L32.5293 38H32.2393ZM32.2026 37.2104V37.4419H31.0044V37.2104H32.2026ZM32.7754 35.8672L33.3291 36.938L33.8843 35.8672H34.2051L33.4697 37.2031V38H33.187V37.2031L32.4517 35.8672H32.7754ZM36.0771 36.8662V37.001C36.0771 37.1611 36.0571 37.3047 36.0171 37.4316C35.9771 37.5586 35.9194 37.6665 35.8442 37.7554C35.769 37.8442 35.6787 37.9121 35.5732 37.959C35.4688 38.0059 35.3516 38.0293 35.2217 38.0293C35.0957 38.0293 34.98 38.0059 34.8745 37.959C34.77 37.9121 34.6792 37.8442 34.6021 37.7554C34.5259 37.6665 34.4668 37.5586 34.4248 37.4316C34.3828 37.3047 34.3618 37.1611 34.3618 37.001V36.8662C34.3618 36.7061 34.3823 36.563 34.4233 36.437C34.4653 36.3101 34.5244 36.2021 34.6006 36.1133C34.6768 36.0234 34.7671 35.9551 34.8716 35.9082C34.9771 35.8613 35.0928 35.8379 35.2188 35.8379C35.3486 35.8379 35.4658 35.8613 35.5703 35.9082C35.6758 35.9551 35.7661 36.0234 35.8413 36.1133C35.9175 36.2021 35.9756 36.3101 36.0156 36.437C36.0566 36.563 36.0771 36.7061 36.0771 36.8662ZM35.7974 37.001V36.8633C35.7974 36.7363 35.7842 36.624 35.7578 36.5264C35.7324 36.4287 35.6948 36.3467 35.645 36.2803C35.5952 36.2139 35.5342 36.1636 35.4619 36.1294C35.3906 36.0952 35.3096 36.0781 35.2188 36.0781C35.1309 36.0781 35.0513 36.0952 34.98 36.1294C34.9097 36.1636 34.8491 36.2139 34.7983 36.2803C34.7485 36.3467 34.71 36.4287 34.6826 36.5264C34.6553 36.624 34.6416 36.7363 34.6416 36.8633V37.001C34.6416 37.1289 34.6553 37.2422 34.6826 37.3408C34.71 37.4385 34.749 37.521 34.7998 37.5884C34.8516 37.6548 34.9126 37.7051 34.9829 37.7393C35.0542 37.7734 35.1338 37.7905 35.2217 37.7905C35.3135 37.7905 35.395 37.7734 35.4663 37.7393C35.5376 37.7051 35.5977 37.6548 35.6465 37.5884C35.6963 37.521 35.7339 37.4385 35.7593 37.3408C35.7847 37.2422 35.7974 37.1289 35.7974 37.001Z" fill="#64FFDA" fill-opacity="0.83"/>
</g>
</g>
<defs>
<clipPath id="clip0_2_2">
<rect width="55" height="42" fill="white" transform="matrix(-1 0 0 1 55 0)"/>
</clipPath>
</defs>
</svg>
